<svg width="615" height="100" xmlns="http://www.w3.org/2000/svg">
 <style type="text/css">.st0{fill-rule:evenodd;clip-rule:evenodd;fill:#fff;}</style>

 <g>
  <title>background</title>
  <rect fill="none" id="canvas_background" height="102" width="617" y="-1" x="-1"/>
 </g>
 <g>
  <title>Layer 1</title>
  <g id="svg_1">
   <path id="svg_2" d="m32.6,4.8l4.4,0c3.1,0 14,3 14,3l1.9,0c0.7,0 1.9,-0.6 2.3,-0.9c0.3,0.1 0.6,0.2 0.9,0.5l-18.4,13c0,0 -5.6,2.8 -5.6,5.4l0,32.8l-18.1,12.6c0.3,-1.7 2.6,-3.3 2.6,-5.8l0,-32.4c0,-2.5 17.5,-11.6 17.5,-14.2c0,-2.6 -10.2,-4.7 -10.2,-4.7c-3.3,-0.1 -4.6,-0.1 -7.9,0c-3.2,0.1 -6.9,2.2 -8.1,2.1c3.7,-2.6 14.4,-11.4 24.7,-11.4m37.2,0.7c2.8,0 4.5,3 9.3,9.3c1.2,1.6 6.8,8.4 6.8,11.7l0,2.6c0,6.6 -17.5,13.3 -17.5,16.1c0,1.9 9.2,1 13.3,3.7c3.9,2.6 5.6,8.1 5.6,11.2l0,7.9c0,4.7 -6.5,6.5 -14.4,12.6c-3.5,2.7 -15.4,10.7 -16.3,10.7c0,0 -13.7,-7.5 -20.3,-7.5l-8.8,0c-3.7,0 -12.8,3.3 -13.5,3.3c0,0 13.8,-13.5 27.7,-13.5l9.3,0c1.9,0 8.5,2.7 10.2,3.3l0,-59.2c0,-0.6 -0.7,-1.6 -1.9,-1.6c-2.6,0 -4.4,4.7 -4.4,4.9l0,35.2c0,1.6 -6.1,6.3 -9.3,8.2c-4.9,2.8 -8,5.5 -10.9,7l0,-0.7c0,0 2.6,-2.8 2.6,-4.4l0,-38.2c0,-0.5 4.1,-5.6 15.4,-12.1c6.5,-4 13.1,-10.5 17.1,-10.5m-5.3,16.1c0,0 7.5,8.1 7.5,13c0,3.7 -2.9,5.2 -7.5,7.9l0,-20.9zm0,27.5c0.7,0.2 4.9,2.7 4.9,4.4l0,26.8c-1.2,0.5 -0.2,0 -0.9,0c-1.5,0 -4,-1.2 -4,-2.6l0,-28.6zm177.9,-10l16.5,8.2l0,35.9l-15.6,7.7l-16.8,-7.2l0,-37.5l15.9,-7.1zm-76.4,-1.1l10,10l0,30.7l4.7,4.7l-7.7,7.5l-8.2,-7.7l0,-28.7c-0.1,-0.1 -5.1,-5 -6.1,-5.4l-5.6,5.1l0,24.8l4.2,4.2l-7.9,7.7l-7.2,-7l0,-31c0,0 -3.4,-2.9 -4.9,-4.7l9.8,-10l9.6,9.1l9.3,-9.3zm38.4,1.3l18.2,7.7c-0.8,1.1 -6.4,5.1 -8.4,5.6c0,0 -14.8,-5.8 -15.1,-5.8l0,30.2l12.5,6.2c0,0 7.2,-2.5 8.9,-2.5c0.2,0 0.5,0.1 0.9,0l0,0.7l-14.2,9.3l-1.9,0l-17.9,-8.2l0,-35.2l17,-8zm-91.7,-0.8c11.3,5.7 16.3,6.4 16.3,8.8l0,29.8l7.2,7.2l-6.7,6.5c-4.9,-4 -6.8,-5.8 -6.8,-5.8l-12.4,6.2l-16.9,-7.8l0,-19.6l16.5,-8.2l9.1,3.7l0,-8.2l-14.5,-5l-7.3,0.9l-0.3,-1.2l15.8,-7.3zm124.7,7.6l10.8,5.1l0,31.9l-10.9,-4.9l0.1,-32.1zm-133.8,16.4l15.4,7.7l0,14.4l-15.4,-7.1l0,-15zm212.2,-45.1c0.7,0 3.8,1.2 8.8,3.7c2.8,1.4 7.7,2.4 7.7,4.9l0,57.8l-15.4,7.2l-17,-8.2l0,-36.6l16.3,-7.2c0.6,0.1 5.8,2.1 5.8,2.1l0,-11.6l-13.6,-5.8c-2.2,0.1 -4.8,2.3 -7.5,2.7l0.6,-2.3c0.1,0.1 12.3,-6.7 14.3,-6.7m43.1,21.5l15.1,16.8l-22.1,16.3l0,4.4c0,0.9 13,6.9 13,6.9s6.5,-4.4 9.3,-2.7c-0.2,0.2 -15.6,10.2 -15.6,10.2l-16.5,-7.2l0,-36.8l16.8,-7.9zm-48.3,7.2l11.2,5.1l0,31.9l-0.2,0l-10.9,-4.9l0,-32.1l-0.1,0zm41.5,0.7l11.1,11.6l-11.1,8.2l0,-19.8zm210.1,32.4l4.2,4l-8.4,7.9l-7.9,-7.9l0,-53.6l12.1,-11.9l0,61.5zm-64.5,-63l0,33.8l12.1,-11.9l9.1,9.1l0,42.8l-11.4,11.2l-0.2,0l0,-48.2l-4.4,-4.2l-5.1,4.4l0,25.4l4.4,4.2l0,0.2l-8.1,8.2l-7.9,-7.9l0,-55.4l11.6,-11.4l0,-0.3l-0.1,0zm34.6,0l0.2,0l7.9,7.9l0,0.2l-8.2,8.2l-8.1,-8.2l8.2,-8.1zm57.3,23.2c0.4,0 15.1,16.1 15.4,16.8l-22.1,15.6l0,6.3l12.5,5.7c0,0 6.6,-0.9 8.9,-2.9l3.4,0.8c-0.3,0.4 -15.4,9.6 -18,9.6c-0.6,0 -11.9,-4.3 -16.5,-7.5l0,-35.6c-0.1,-1.5 16.4,-8.8 16.4,-8.8m-57,-1.3l0.2,0l7.2,7.2l0,33.1l4.4,4.2l-8.4,8.2l-7.9,-7.9l0,-33.1l-3.7,-3.5l8.2,-8.2zm50.5,9.2l10.6,10.9l-10.5,6.8l-0.1,-17.7zm-130.5,-37.1l0.9,0c-0.7,1.9 -13.3,7.9 -18.2,13.5c-7.5,8.6 -12.5,13.3 -11.6,26.7c0.5,7.8 6.6,19.3 13.7,23.4c2.2,1.3 9.1,5.1 15.6,5.4c9.4,0.4 5.7,-1.5 7,-0.7l0,-56.4c0,-0.7 -1.7,-4.4 -3.3,-4.4c-0.5,0 -1.2,0.9 -1.2,1.4l0,38.9c0,1.5 -1.4,3.5 -7.9,7.9c-6.7,4.5 -8.8,6 -9.5,5.8c0.2,-0.4 1.2,-2 1.6,-2.3l0,-40.5c0,-4 5.9,-6.4 10.9,-10.3c8.4,-6.4 12.9,-7.9 13,-7.9l2.1,0c5.6,0 9.1,6.8 9.8,7.5c0.1,0.1 1.6,0.6 2.1,1.2l3.3,0c0.9,0 3.3,-1.4 4.7,-1.2c-3.8,3.3 -15.8,10.9 -16.1,10.9l-1.9,0c-0.9,0 -2.2,-1.3 -3.7,-2.1l0,50.8c0.7,0.1 0.6,0 0.9,0c2.3,0 10.8,-6.1 11.2,-6.7l0.7,0l0,1.6c-0.1,0.1 -3.5,6.5 -3.5,6.5c-7.3,8.3 -15.4,12.4 -27,12.5c-20.3,0.1 -34.8,-14.6 -36.3,-37.4c-1.5,-22.7 14.5,-41.4 33.3,-42.6c2.7,-0.2 6.1,0 6.5,0c0.1,-0.1 2.7,-1.3 2.9,-1.5" class="st0"/>
  </g>
 </g>
</svg>